<svg width="64" height="64" viewBox="0 0 64 64" fill="none" xmlns="http://www.w3.org/2000/svg">
  <defs>
    <linearGradient id="dimex-favicon-bg" x1="8" y1="8" x2="56" y2="56" gradientUnits="userSpaceOnUse">
      <stop stop-color="#0E71CF" />
      <stop offset="1" stop-color="#0A4B9E" />
    </linearGradient>
  </defs>
  <rect x="4" y="4" width="56" height="56" rx="14" fill="url(#dimex-favicon-bg)" />
  <path
    d="M18 14H33C42.3888 14 50 21.6112 50 31C50 40.3888 42.3888 48 33 48H18V14Z"
    fill="white"
  />
  <path
    d="M27 22H33C37.9706 22 42 26.0294 42 31C42 35.9706 37.9706 40 33 40H27V22Z"
    fill="#0A5DB6"
  />
  <rect x="43.5" y="8.5" width="8" height="8" rx="1.5" fill="white" />
  <rect x="52.5" y="8.5" width="3" height="3" rx="0.8" fill="#BBD8FF" />
  <rect x="52.5" y="12.5" width="3" height="3" rx="0.8" fill="#78AFFF" />
</svg>
